<svg width="27" height="20" viewBox="0 0 27 20" fill="none" xmlns="http://www.w3.org/2000/svg">
<path d="M2 0.615385C0.89543 0.615385 0 1.51082 0 2.61538H2V0.615385ZM25 0.615385H2V2.61538H25V0.615385ZM27 2.61538C27 1.51081 26.1046 0.615385 25 0.615385V2.61538H27ZM25 4.61538C26.1046 4.61538 27 3.71995 27 2.61538H25V2.61538V4.61538ZM2 4.61538H25V2.61538H2V4.61538ZM0 2.61538C0 3.71995 0.895431 4.61538 2 4.61538V2.61538V2.61538H0ZM2 8C0.89543 8 0 8.89543 0 10H2V8ZM25 8H2V10H25V8ZM27 10C27 8.89543 26.1046 8 25 8V10H27ZM25 12C26.1046 12 27 11.1046 27 10H25V12ZM2 12H25V10H2V12ZM0 10C0 11.1046 0.895431 12 2 12V10H0ZM2 17.3846V15.3846C0.895431 15.3846 0 16.28 0 17.3846H2ZM2 17.3846V17.3846H0C0 18.4892 0.895431 19.3846 2 19.3846V17.3846ZM25 17.3846H2V19.3846H25V17.3846ZM25 17.3846V17.3846V19.3846C26.1046 19.3846 27 18.4892 27 17.3846H25ZM25 17.3846H27C27 16.28 26.1046 15.3846 25 15.3846V17.3846ZM2 17.3846H25V15.3846H2V17.3846Z" fill="black"/>
</svg>
